<svg>
  <symbol fill="currentColor" viewBox="0 0 24 24" xmlns="http://www.w3.org/2000/svg" id="analytics">
    <g id="ic/layers">
      <path id="coolicon" d="M12 23.27L3 16.27L4.62 15.01L11.99 20.74L19.37 15.001L21 16.27L12 23.27ZM12 19L3 12L4.62 10.74L11.99 16.47L19.37 10.73L21 12L12 19ZM12 14.73L4.63 8.99998L3 7.72998L12 0.72998L21 7.72998L19.36 8.99998L12 14.73Z" ></path>
    </g>
  </symbol>
  <symbol fill="currentColor" xmlns="http://www.w3.org/2000/svg" viewBox="0 0 20 20" id="anomalies">
    <g id="ic/attention">
      <g id="coolicon">
        <path d="M17.7216 17.4984H2.2774C1.97969 17.4984 1.70459 17.3395 1.55573 17.0817C1.40688 16.8239 1.40688 16.5062 1.55574 16.2484L9.2774 2.91505C9.42638 2.65765 9.70124 2.49915 9.99865 2.49915C10.2961 2.49915 10.5709 2.65765 10.7199 2.91505L18.4416 16.2484C18.5904 16.5061 18.5904 16.8236 18.4418 17.0814C18.2931 17.3391 18.0183 17.4981 17.7207 17.4984H17.7216ZM9.9999 4.99839L3.72407 15.8317H16.2774L9.9999 4.99839ZM10.8291 12.4992H9.1624V8.33172H10.8291V12.4992Z" fill="currentColor"></path>
        <path d="M9.16657 13.3334H10.8332V15.0001H9.16657V13.3334Z" ></path>
      </g>
    </g>
  </symbol>
    <symbol fill="none" xmlns="http://www.w3.org/2000/svg" viewBox="0 0 20 20" id="fake-checker">
    <g id="ic/external link">
      <path id="coolicon" d="M14.1674 16.6666H5.00077C4.0803 16.6666 3.33411 15.9205 3.33411 15V5.83331C3.33411 4.91284 4.0803 4.16665 5.00077 4.16665H8.33411V5.83331H5.00077V15H14.1674V11.6666H15.8341V15C15.8341 15.9205 15.0879 16.6666 14.1674 16.6666ZM9.75077 11.4225L8.57577 10.2441L13.8199 4.99998H10.8341V3.33331H16.6674V9.16665H15.0008V6.17915L9.75077 11.4225Z"  fill="currentColor"></path>
    </g>
  </symbol>
  <symbol fill="none" xmlns="http://www.w3.org/2000/svg" viewBox="0 0 20 20" id="folder">
    <g id="ic/folder">
      <path id="coolicon" d="M15 16.6667H2.49996C2.27878 16.669 2.06609 16.5817 1.91023 16.4247C1.75438 16.2678 1.66862 16.0545 1.67246 15.8333H1.66663V4.16667C1.66663 3.24619 2.41282 2.5 3.33329 2.5H8.33329C8.51943 2.50018 8.70014 2.56266 8.84663 2.6775L10.75 4.16667H15C15.9204 4.16667 16.6666 4.91286 16.6666 5.83333V9.16667H17.5C17.7801 9.1667 18.0414 9.30746 18.1956 9.54133C18.3498 9.77519 18.3762 10.0709 18.2658 10.3283L15.7658 16.1617C15.6345 16.468 15.3333 16.6667 15 16.6667ZM5.54996 10.8333L3.76413 15H14.4508L16.2366 10.8333H5.54996ZM3.33329 5.83333V11.775L4.23413 9.67167C4.36545 9.36533 4.66666 9.1667 4.99996 9.16667H15V5.83333H3.33329Z"  fill="currentColor"></path>
    </g>
  </symbol>
  <symbol fill="none" xmlns="http://www.w3.org/2000/svg" viewBox="0 0 17 17" id="notification">
    <g id="ic/notification">
      <path id="coolicon" d="M10 18.3333C9.07957 18.3333 8.33337 17.5871 8.33337 16.6666H11.6667C11.6667 17.5871 10.9205 18.3333 10 18.3333ZM16.6667 15.8333H3.33337V14.1666L5.00004 13.3333V8.74996C5.00004 5.86496 6.18421 3.99413 8.33337 3.48329V1.66663H11.6667V3.48329C13.8159 3.99329 15 5.86329 15 8.74996V13.3333L16.6667 14.1666V15.8333ZM10 4.79163C8.9831 4.72596 8.00236 5.18102 7.39587 5.99996C6.87716 6.82042 6.62266 7.78028 6.66671 8.74996V14.1666H13.3334V8.74996C13.3774 7.78028 13.1229 6.82045 12.6042 5.99996C11.9977 5.18102 11.017 4.72596 10 4.79163Z" fill="currentColor"></path>
    </g>
  </symbol>
  <symbol fill="none" xmlns="http://www.w3.org/2000/svg"  id="personal-tapes">
    <g id="ic/settings2">
      <path id="coolicon" d="M6.66663 16.6667C5.14601 16.6675 3.81761 15.639 3.43746 14.1667H1.66663V12.5H3.43829C3.87133 10.8229 5.51672 9.7569 7.22436 10.0472C8.932 10.3374 10.1328 11.8872 9.98734 13.6132C9.84192 15.3392 8.39876 16.6663 6.66663 16.6667ZM6.66663 11.6667C5.75612 11.6676 5.01487 12.3991 5.00182 13.3095C4.98877 14.2199 5.70876 14.9723 6.61887 14.9993C7.52897 15.0263 8.29232 14.3179 8.33329 13.4084V13.7417V13.3334C8.33329 12.4129 7.5871 11.6667 6.66663 11.6667ZM18.3333 14.1667H10.8333V12.5H18.3333V14.1667ZM10.8333 10C9.31298 10.0004 7.98504 8.97206 7.60496 7.50002H1.66663V5.83336H7.60496C8.03799 4.15623 9.68339 3.09023 11.391 3.38049C13.0987 3.67075 14.2994 5.22054 14.154 6.94655C14.0086 8.67257 12.5654 9.99958 10.8333 10ZM10.8333 5.00002C9.92279 5.00095 9.18153 5.7324 9.16849 6.64281C9.15544 7.55322 9.87543 8.30561 10.7855 8.33262C11.6956 8.35964 12.459 7.65127 12.5 6.74169V7.07502V6.66669C12.5 5.74622 11.7538 5.00002 10.8333 5.00002ZM18.3333 7.50002H15V5.83336H18.3333V7.50002Z" fill="currentColor"></path>
    </g>
  </symbol>
  <symbol fill="none" xmlns="http://www.w3.org/2000/svg"  id="persons">
    <g id="ic/persons">
      <g id="coolicon">
        <path d="M7.49996 2.5C5.19877 2.5 3.33329 4.36548 3.33329 6.66667C3.33329 8.96785 5.19877 10.8333 7.49996 10.8333C9.80115 10.8333 11.6666 8.96785 11.6666 6.66667C11.6666 4.36548 9.80115 2.5 7.49996 2.5ZM4.99996 6.66667C4.99996 5.28595 6.11925 4.16667 7.49996 4.16667C8.88067 4.16667 9.99996 5.28595 9.99996 6.66667C9.99996 8.04738 8.88067 9.16667 7.49996 9.16667C6.11925 9.16667 4.99996 8.04738 4.99996 6.66667Z"  fill="currentColor"></path>
        <path d="M14.0903 6.84857C13.8559 6.72903 13.5964 6.66672 13.3333 6.66672V5.00005C13.8596 5.00005 14.3785 5.12464 14.8474 5.36371C14.899 5.39004 14.9499 5.41768 15 5.44658C15.4045 5.68011 15.7559 5.99641 16.031 6.37546C16.3402 6.80143 16.5441 7.29456 16.626 7.81447C16.7079 8.33439 16.6656 8.86631 16.5024 9.36671C16.3392 9.86711 16.0599 10.3218 15.6872 10.6934C15.3146 11.0651 14.8592 11.3433 14.3584 11.5051C13.9127 11.6492 13.4423 11.6975 12.9779 11.6477C12.9204 11.6415 12.863 11.6338 12.8058 11.6247C12.2865 11.5414 11.7942 11.3365 11.3692 11.0266L11.3684 11.0259L12.3508 9.67964C12.5634 9.83476 12.8097 9.93731 13.0696 9.97895C13.3294 10.0206 13.5954 10.0001 13.8458 9.91919C14.0962 9.83826 14.3239 9.69919 14.5102 9.51335C14.6965 9.32752 14.8362 9.1002 14.9178 8.85001C14.9994 8.59981 15.0206 8.33386 14.9796 8.07391C14.9386 7.81396 14.8367 7.56741 14.6821 7.35443C14.5276 7.14145 14.3248 6.9681 14.0903 6.84857Z"  fill="currentColor"></path>
        <path d="M16.665 17.5C16.665 17.0625 16.5789 16.6292 16.4114 16.225C16.244 15.8208 15.9986 15.4535 15.6892 15.1441C15.3798 14.8347 15.0125 14.5893 14.6083 14.4219C14.2041 14.2544 13.7708 14.1682 13.3333 14.1682V12.5C13.9017 12.5 14.4653 12.5969 15 12.786C15.0829 12.8153 15.1652 12.8468 15.2467 12.8806C15.8533 13.1319 16.4045 13.5002 16.8688 13.9645C17.3331 14.4288 17.7014 14.98 17.9527 15.5866C17.9864 15.6681 18.018 15.7504 18.0473 15.8333C18.2364 16.368 18.3333 16.9316 18.3333 17.5H16.665Z" fill="currentColor"></path>
        <path d="M13.3333 17.5H11.6666C11.6666 15.1988 9.80115 13.3333 7.49996 13.3333C5.19877 13.3333 3.33329 15.1988 3.33329 17.5H1.66663C1.66663 14.2783 4.2783 11.6667 7.49996 11.6667C10.7216 11.6667 13.3333 14.2783 13.3333 17.5Z" fill="currentColor"></path>
      </g>
    </g>
  </symbol>
  <symbol fill="none" xmlns="http://www.w3.org/2000/svg"  id="reports">
    <g id="ic/file">
      <path id="coolicon" d="M15 18.3333H5.00004C4.07957 18.3333 3.33337 17.5871 3.33337 16.6666V3.33329C3.33337 2.41282 4.07957 1.66663 5.00004 1.66663H10.8334C10.8425 1.66702 10.8514 1.6687 10.86 1.67163C10.8682 1.67414 10.8766 1.67582 10.885 1.67663C10.9585 1.68134 11.0311 1.69562 11.1009 1.71913L11.1242 1.72663C11.1431 1.73303 11.1615 1.74083 11.1792 1.74996C11.27 1.79031 11.3527 1.84678 11.4234 1.91663L16.4234 6.91663C16.4932 6.98728 16.5497 7.07001 16.59 7.16079C16.5984 7.17913 16.6042 7.19829 16.6109 7.21746L16.6184 7.23913C16.6416 7.30862 16.6554 7.38094 16.6592 7.45413C16.6605 7.46178 16.6625 7.46931 16.665 7.47663C16.6665 7.48431 16.6671 7.49214 16.6668 7.49996V16.6666C16.6668 17.5871 15.9205 18.3333 15 18.3333ZM5.00004 3.33329V16.6666H15V8.33329H10.8334C10.3731 8.33329 10 7.9602 10 7.49996V3.33329H5.00004ZM11.6667 4.51163V6.66663H13.8217L11.6667 4.51163Z"  fill="currentColor"></path>
    </g>
  </symbol>
  <symbol fill="none" xmlns="http://www.w3.org/2000/svg"  id="settings">
    <g id="ic/settings">
      <path id="coolicon" d="M11.5166 18.3333H8.48323C8.09165 18.3333 7.75285 18.0608 7.66906 17.6783L7.32989 16.1083C6.87743 15.9101 6.44841 15.6621 6.05072 15.3691L4.51989 15.8566C4.14656 15.9757 3.74071 15.8185 3.54489 15.4791L2.02489 12.8533C1.83121 12.5137 1.89794 12.0854 2.18572 11.8208L3.37322 10.7375C3.31922 10.2467 3.31922 9.75153 3.37322 9.26079L2.18572 8.17996C1.89752 7.91527 1.83076 7.48639 2.02489 7.14663L3.54156 4.51913C3.73738 4.17971 4.14323 4.02257 4.51656 4.14163L6.04739 4.62913C6.25078 4.47842 6.4625 4.33931 6.68156 4.21246C6.89184 4.09387 7.10826 3.9865 7.32989 3.89079L7.66989 2.32246C7.75328 1.93993 8.09172 1.66704 8.48323 1.66663H11.5166C11.9081 1.66704 12.2465 1.93993 12.3299 2.32246L12.6732 3.89163C12.9072 3.99456 13.1351 4.11086 13.3557 4.23996C13.5615 4.35897 13.7604 4.48945 13.9516 4.63079L15.4832 4.14329C15.8563 4.02468 16.2617 4.18176 16.4574 4.52079L17.9741 7.14829C18.1677 7.48786 18.101 7.91622 17.8132 8.18079L16.6257 9.26413C16.6797 9.75487 16.6797 10.2501 16.6257 10.7408L17.8132 11.8241C18.101 12.0887 18.1677 12.5171 17.9741 12.8566L16.4574 15.4841C16.2617 15.8232 15.8563 15.9802 15.4832 15.8616L13.9516 15.3741C13.7577 15.5169 13.5563 15.649 13.3482 15.77C13.1297 15.8965 12.9044 16.0109 12.6732 16.1125L12.3299 17.6783C12.2462 18.0605 11.9078 18.333 11.5166 18.3333ZM6.34989 13.5241L7.03323 14.0241C7.18727 14.1376 7.34782 14.2419 7.51406 14.3366C7.67048 14.4272 7.83153 14.5095 7.99656 14.5833L8.77406 14.9241L9.15489 16.6666H10.8466L11.2274 14.9233L12.0049 14.5825C12.3443 14.4328 12.6665 14.2467 12.9657 14.0275L13.6499 13.5275L15.3507 14.0691L16.1966 12.6041L14.8774 11.4016L14.9707 10.5583C15.0117 10.1894 15.0117 9.81716 14.9707 9.44829L14.8774 8.60496L16.1974 7.39996L15.3507 5.93413L13.6499 6.47579L12.9657 5.97579C12.6664 5.75555 12.3443 5.56809 12.0049 5.41663L11.2274 5.07579L10.8466 3.33329H9.15489L8.77239 5.07663L7.99656 5.41663C7.8314 5.48916 7.67032 5.57067 7.51406 5.66079C7.34884 5.75523 7.18914 5.85901 7.03572 5.97163L6.35156 6.47163L4.65156 5.92996L3.80406 7.39996L5.12322 8.60079L5.02989 9.44496C4.98889 9.81382 4.98889 10.1861 5.02989 10.555L5.12322 11.3983L3.80406 12.6008L4.64989 14.0658L6.34989 13.5241ZM9.99656 13.3333C8.15561 13.3333 6.66322 11.8409 6.66322 9.99996C6.66322 8.15901 8.15561 6.66663 9.99656 6.66663C11.8375 6.66663 13.3299 8.15901 13.3299 9.99996C13.3276 11.84 11.8366 13.331 9.99656 13.3333ZM9.99656 8.33329C9.08605 8.33422 8.3448 9.06567 8.33175 9.97608C8.3187 10.8865 9.0387 11.6389 9.9488 11.6659C10.8589 11.6929 11.6223 10.9845 11.6632 10.075V10.4083V9.99996C11.6632 9.07948 10.917 8.33329 9.99656 8.33329Z"  fill="currentColor"></path>
    </g>
  </symbol>
  <symbol fill="none" xmlns="http://www.w3.org/2000/svg"  id="sources">
    <g id="ic/compass" clip-path="url(#clip0_4246_3195)">
      <path id="Vector (Stroke)" fill-rule="evenodd" clip-rule="evenodd" d="M10 2.50004C5.8579 2.50004 2.50004 5.8579 2.50004 10C2.50004 14.1422 5.8579 17.5 10 17.5C14.1422 17.5 17.5 14.1422 17.5 10C17.5 5.8579 14.1422 2.50004 10 2.50004ZM0.833374 10C0.833374 4.93743 4.93743 0.833374 10 0.833374C15.0626 0.833374 19.1667 4.93743 19.1667 10C19.1667 15.0626 15.0626 19.1667 10 19.1667C4.93743 19.1667 0.833374 15.0626 0.833374 10Z"  fill="currentColor"></path>
      <path id="Vector (Stroke)_2" fill-rule="evenodd" clip-rule="evenodd" d="M14.1226 5.8774C14.3458 6.10059 14.4237 6.43073 14.3239 6.73018L12.5572 12.0302C12.4743 12.279 12.279 12.4743 12.0302 12.5572L6.73018 14.3239C6.43073 14.4237 6.10059 14.3458 5.8774 14.1226C5.65421 13.8994 5.57627 13.5692 5.67609 13.2698L7.44275 7.9698C7.5257 7.72096 7.72096 7.5257 7.9698 7.44275L13.2698 5.67609C13.5692 5.57627 13.8994 5.65421 14.1226 5.8774ZM8.89213 8.89213L7.78427 12.2157L11.1078 11.1078L12.2157 7.78427L8.89213 8.89213Z" fill="currentColor"></path>
    </g>
    <defs>
      <clipPath id="clip0_4246_3195">
        <rect width="20" height="20" fill="white"></rect>
      </clipPath>
    </defs>
  </symbol>
  <symbol fill="none" xmlns="http://www.w3.org/2000/svg"  id="statistics">
    <g id="ic/pie chart">
      <path id="coolicon" d="M10.0426 18.2909C5.60519 18.287 1.94909 14.8066 1.72693 10.3747C1.50477 5.94287 4.79449 2.11426 9.20929 1.66669V5.03335C6.70147 5.45717 4.91254 7.6977 5.0544 10.2371C5.19626 12.7765 7.2236 14.8039 9.76302 14.9457C12.3024 15.0876 14.543 13.2987 14.9668 10.7909H18.3335C17.8999 15.0463 14.3193 18.2851 10.0418 18.2909H10.0426ZM18.3343 9.12419H14.9676C14.613 7.02894 12.9713 5.38757 10.876 5.03335V1.66669C14.8152 2.07001 17.9297 5.18417 18.3335 9.12335L18.3343 9.12419Z"  fill="currentColor"></path>
    </g>
  </symbol>
  <symbol fill="none" xmlns="http://www.w3.org/2000/svg"  id="technical-indicators">
    <g id="ic/chart">
      <path id="coolicon" d="M15.8333 17.5H4.16667C3.24619 17.5 2.5 16.7538 2.5 15.8333V4.16667C2.5 3.24619 3.24619 2.5 4.16667 2.5H15.8333C16.7538 2.5 17.5 3.24619 17.5 4.16667V15.8333C17.5 16.7538 16.7538 17.5 15.8333 17.5ZM4.16667 4.16667V15.8333H15.8333V4.16667H4.16667ZM14.1667 14.1667H12.5V8.33333H14.1667V14.1667ZM10.8333 14.1667H9.16667V5.83333H10.8333V14.1667ZM7.5 14.1667H5.83333V10H7.5V14.1667Z"  fill="currentColor"></path>
    </g>
  </symbol>
  <symbol fill="none" xmlns="http://www.w3.org/2000/svg"  id="transcription">
    <g id="ic/highlight">
      <path id="Vector (Stroke)" fill-rule="evenodd" clip-rule="evenodd" d="M9.16663 16.6667C9.16663 16.2065 9.53972 15.8334 9.99996 15.8334H17.5C17.9602 15.8334 18.3333 16.2065 18.3333 16.6667C18.3333 17.1269 17.9602 17.5 17.5 17.5H9.99996C9.53972 17.5 9.16663 17.1269 9.16663 16.6667Z"  fill="currentColor"></path>
      <path id="coolicon" d="M3.68333 17.1492C3.44956 17.1488 3.22672 17.0502 3.06916 16.8775C2.9087 16.7062 2.82896 16.4746 2.84999 16.2408L3.05416 13.9958L12.4858 4.5675L15.4333 7.51417L6.00416 16.9417L3.75916 17.1458C3.73333 17.1483 3.70749 17.1492 3.68333 17.1492ZM16.0217 6.925L13.075 3.97834L14.8425 2.21084C14.9988 2.05436 15.2109 1.96643 15.4321 1.96643C15.6533 1.96643 15.8654 2.05436 16.0217 2.21084L17.7892 3.97834C17.9456 4.13464 18.0336 4.34675 18.0336 4.56792C18.0336 4.78909 17.9456 5.0012 17.7892 5.1575L16.0225 6.92417L16.0217 6.925Z"  fill="currentColor"></path>
    </g>
  </symbol>
</svg>