<svg width="20" height="20" viewBox="0 0 20 20" fill="none" xmlns="http://www.w3.org/2000/svg">
<g id="ic/copy">
<path id="coolicon" d="M11.6665 18.3334H3.33317C2.88656 18.3489 2.45356 18.1783 2.13757 17.8623C1.82159 17.5463 1.65098 17.1133 1.6665 16.6667V8.33341C1.65098 7.88681 1.82159 7.45381 2.13757 7.13782C2.45356 6.82183 2.88656 6.65123 3.33317 6.66674H6.6665V3.33341C6.65098 2.88681 6.82159 2.45381 7.13758 2.13782C7.45356 1.82183 7.88656 1.65123 8.33317 1.66675H16.6665C17.1131 1.65123 17.5461 1.82183 17.8621 2.13782C18.1781 2.45381 18.3487 2.88681 18.3332 3.33341V11.6667C18.3484 12.1133 18.1777 12.5461 17.8618 12.8621C17.5459 13.178 17.113 13.3487 16.6665 13.3334H13.3332V16.6667C13.3484 17.1133 13.1778 17.5461 12.8618 17.8621C12.5459 18.178 12.113 18.3487 11.6665 18.3334ZM3.33317 8.33341V16.6667H11.6665V13.3334H8.33317C7.88663 13.3487 7.45378 13.178 7.13785 12.8621C6.82192 12.5461 6.65123 12.1133 6.6665 11.6667V8.33341H3.33317ZM8.33317 3.33341V11.6667H16.6665V3.33341H8.33317Z" fill="#2052D5"/>
</g>
</svg>
