<svg width="20" height="20" viewBox="0 0 20 20" fill="none" xmlns="http://www.w3.org/2000/svg">
<g id="ic/tag">
<path id="coolicon" d="M10.7476 18.3068C10.3051 18.3081 9.88047 18.1322 9.56846 17.8184L3.04013 11.2893C2.69562 10.9457 2.51897 10.4685 2.55679 9.98343L2.97346 4.51176C3.03288 3.68875 3.68862 3.03477 4.51179 2.97759L9.98346 2.56092C10.026 2.55176 10.0693 2.55176 10.1118 2.55176C10.5533 2.55289 10.9765 2.72841 11.2893 3.04009L17.8185 9.56842C18.1312 9.881 18.3069 10.305 18.3069 10.7472C18.3069 11.1893 18.1312 11.6133 17.8185 11.9259L11.926 17.8184C11.6142 18.132 11.1899 18.3079 10.7476 18.3068ZM10.111 4.21842L4.63513 4.63509L4.21846 10.1109L10.7476 16.6401L16.6393 10.7484L10.111 4.21842ZM7.21179 8.87843C6.41666 8.87859 5.73214 8.31706 5.57686 7.53723C5.42158 6.75741 5.8388 5.97649 6.57335 5.67208C7.3079 5.36766 8.1552 5.62452 8.59707 6.28558C9.03893 6.94663 8.95229 7.82776 8.39013 8.39009C8.07832 8.70369 7.65402 8.87953 7.21179 8.87843Z" fill="#949FB7"/>
</g>
</svg>
