<svg width="20" height="20" viewBox="0 0 20 20" fill="none" xmlns="http://www.w3.org/2000/svg">
<g id="ic/settings2">
<path id="coolicon" d="M6.66663 16.6667C5.14601 16.6675 3.81761 15.639 3.43746 14.1667H1.66663V12.5H3.43829C3.87133 10.8229 5.51672 9.7569 7.22436 10.0472C8.932 10.3374 10.1328 11.8872 9.98734 13.6132C9.84192 15.3392 8.39876 16.6663 6.66663 16.6667ZM6.66663 11.6667C5.75612 11.6676 5.01487 12.3991 5.00182 13.3095C4.98877 14.2199 5.70876 14.9723 6.61887 14.9993C7.52897 15.0263 8.29232 14.3179 8.33329 13.4084V13.7417V13.3334C8.33329 12.4129 7.5871 11.6667 6.66663 11.6667ZM18.3333 14.1667H10.8333V12.5H18.3333V14.1667ZM10.8333 10C9.31298 10.0004 7.98504 8.97206 7.60496 7.50002H1.66663V5.83336H7.60496C8.03799 4.15623 9.68339 3.09023 11.391 3.38049C13.0987 3.67075 14.2994 5.22054 14.154 6.94655C14.0086 8.67257 12.5654 9.99958 10.8333 10ZM10.8333 5.00002C9.92279 5.00095 9.18153 5.7324 9.16849 6.64281C9.15544 7.55322 9.87543 8.30561 10.7855 8.33262C11.6956 8.35964 12.459 7.65127 12.5 6.74169V7.07502V6.66669C12.5 5.74622 11.7538 5.00002 10.8333 5.00002ZM18.3333 7.50002H15V5.83336H18.3333V7.50002Z" fill="#C1C8D7"/>
</g>
</svg>
