<svg width="20" height="20" viewBox="0 0 20 20" fill="none" xmlns="http://www.w3.org/2000/svg">
<g id="ic/settings">
<path id="coolicon" d="M11.5166 18.3333H8.48323C8.09165 18.3333 7.75285 18.0608 7.66906 17.6783L7.32989 16.1083C6.87743 15.9101 6.44841 15.6621 6.05072 15.3691L4.51989 15.8566C4.14656 15.9757 3.74071 15.8185 3.54489 15.4791L2.02489 12.8533C1.83121 12.5137 1.89794 12.0854 2.18572 11.8208L3.37322 10.7375C3.31922 10.2467 3.31922 9.75153 3.37322 9.26079L2.18572 8.17996C1.89752 7.91527 1.83076 7.48639 2.02489 7.14663L3.54156 4.51913C3.73738 4.17971 4.14323 4.02257 4.51656 4.14163L6.04739 4.62913C6.25078 4.47842 6.4625 4.33931 6.68156 4.21246C6.89184 4.09387 7.10826 3.9865 7.32989 3.89079L7.66989 2.32246C7.75328 1.93993 8.09172 1.66704 8.48323 1.66663H11.5166C11.9081 1.66704 12.2465 1.93993 12.3299 2.32246L12.6732 3.89163C12.9072 3.99456 13.1351 4.11086 13.3557 4.23996C13.5615 4.35897 13.7604 4.48945 13.9516 4.63079L15.4832 4.14329C15.8563 4.02468 16.2617 4.18176 16.4574 4.52079L17.9741 7.14829C18.1677 7.48786 18.101 7.91622 17.8132 8.18079L16.6257 9.26413C16.6797 9.75487 16.6797 10.2501 16.6257 10.7408L17.8132 11.8241C18.101 12.0887 18.1677 12.5171 17.9741 12.8566L16.4574 15.4841C16.2617 15.8232 15.8563 15.9802 15.4832 15.8616L13.9516 15.3741C13.7577 15.5169 13.5563 15.649 13.3482 15.77C13.1297 15.8965 12.9044 16.0109 12.6732 16.1125L12.3299 17.6783C12.2462 18.0605 11.9078 18.333 11.5166 18.3333ZM6.34989 13.5241L7.03323 14.0241C7.18727 14.1376 7.34782 14.2419 7.51406 14.3366C7.67048 14.4272 7.83153 14.5095 7.99656 14.5833L8.77406 14.9241L9.15489 16.6666H10.8466L11.2274 14.9233L12.0049 14.5825C12.3443 14.4328 12.6665 14.2467 12.9657 14.0275L13.6499 13.5275L15.3507 14.0691L16.1966 12.6041L14.8774 11.4016L14.9707 10.5583C15.0117 10.1894 15.0117 9.81716 14.9707 9.44829L14.8774 8.60496L16.1974 7.39996L15.3507 5.93413L13.6499 6.47579L12.9657 5.97579C12.6664 5.75555 12.3443 5.56809 12.0049 5.41663L11.2274 5.07579L10.8466 3.33329H9.15489L8.77239 5.07663L7.99656 5.41663C7.8314 5.48916 7.67032 5.57067 7.51406 5.66079C7.34884 5.75523 7.18914 5.85901 7.03572 5.97163L6.35156 6.47163L4.65156 5.92996L3.80406 7.39996L5.12322 8.60079L5.02989 9.44496C4.98889 9.81382 4.98889 10.1861 5.02989 10.555L5.12322 11.3983L3.80406 12.6008L4.64989 14.0658L6.34989 13.5241ZM9.99656 13.3333C8.15561 13.3333 6.66322 11.8409 6.66322 9.99996C6.66322 8.15901 8.15561 6.66663 9.99656 6.66663C11.8375 6.66663 13.3299 8.15901 13.3299 9.99996C13.3276 11.84 11.8366 13.331 9.99656 13.3333ZM9.99656 8.33329C9.08605 8.33422 8.3448 9.06567 8.33175 9.97608C8.3187 10.8865 9.0387 11.6389 9.9488 11.6659C10.8589 11.6929 11.6223 10.9845 11.6632 10.075V10.4083V9.99996C11.6632 9.07948 10.917 8.33329 9.99656 8.33329Z" fill="#C1C8D7"/>
</g>
</svg>
