<svg width="20" height="20" viewBox="0 0 20 20" fill="none" xmlns="http://www.w3.org/2000/svg">
<g id="ic/compass" clip-path="url(#clip0_4246_3195)">
<path id="Vector (Stroke)" fill-rule="evenodd" clip-rule="evenodd" d="M10 2.50004C5.8579 2.50004 2.50004 5.8579 2.50004 10C2.50004 14.1422 5.8579 17.5 10 17.5C14.1422 17.5 17.5 14.1422 17.5 10C17.5 5.8579 14.1422 2.50004 10 2.50004ZM0.833374 10C0.833374 4.93743 4.93743 0.833374 10 0.833374C15.0626 0.833374 19.1667 4.93743 19.1667 10C19.1667 15.0626 15.0626 19.1667 10 19.1667C4.93743 19.1667 0.833374 15.0626 0.833374 10Z" fill="#C1C8D7"/>
<path id="Vector (Stroke)_2" fill-rule="evenodd" clip-rule="evenodd" d="M14.1226 5.8774C14.3458 6.10059 14.4237 6.43073 14.3239 6.73018L12.5572 12.0302C12.4743 12.279 12.279 12.4743 12.0302 12.5572L6.73018 14.3239C6.43073 14.4237 6.10059 14.3458 5.8774 14.1226C5.65421 13.8994 5.57627 13.5692 5.67609 13.2698L7.44275 7.9698C7.5257 7.72096 7.72096 7.5257 7.9698 7.44275L13.2698 5.67609C13.5692 5.57627 13.8994 5.65421 14.1226 5.8774ZM8.89213 8.89213L7.78427 12.2157L11.1078 11.1078L12.2157 7.78427L8.89213 8.89213Z" fill="#C1C8D7"/>
</g>
<defs>
<clipPath id="clip0_4246_3195">
<rect width="20" height="20" fill="white"/>
</clipPath>
</defs>
</svg>
