<svg width="20" height="20" viewBox="0 0 20 20" fill="none" xmlns="http://www.w3.org/2000/svg">
<g id="ic/pie chart">
<path id="coolicon" d="M10.0426 18.2909C5.60519 18.287 1.94909 14.8066 1.72693 10.3747C1.50477 5.94287 4.79449 2.11426 9.20929 1.66669V5.03335C6.70147 5.45717 4.91254 7.6977 5.0544 10.2371C5.19626 12.7765 7.2236 14.8039 9.76302 14.9457C12.3024 15.0876 14.543 13.2987 14.9668 10.7909H18.3335C17.8999 15.0463 14.3193 18.2851 10.0418 18.2909H10.0426ZM18.3343 9.12419H14.9676C14.613 7.02894 12.9713 5.38757 10.876 5.03335V1.66669C14.8152 2.07001 17.9297 5.18417 18.3335 9.12335L18.3343 9.12419Z" fill="#C1C8D7"/>
</g>
</svg>
