<svg>
  <symbol fill="currentColor" viewBox="0 0 24 24" xmlns="http://www.w3.org/2000/svg" id="analytics">
    <g id="ic/layers">
      <path id="coolicon" d="M12 23.27L3 16.27L4.62 15.01L11.99 20.74L19.37 15.001L21 16.27L12 23.27ZM12 19L3 12L4.62 10.74L11.99 16.47L19.37 10.73L21 12L12 19ZM12 14.73L4.63 8.99998L3 7.72998L12 0.72998L21 7.72998L19.36 8.99998L12 14.73Z" ></path>
    </g>
  </symbol>
  <symbol fill="currentColor" xmlns="http://www.w3.org/2000/svg" viewBox="0 0 20 20" id="anomalies">
    <g id="ic/attention">
      <g id="coolicon">
        <path d="M17.7216 17.4984H2.2774C1.97969 17.4984 1.70459 17.3395 1.55573 17.0817C1.40688 16.8239 1.40688 16.5062 1.55574 16.2484L9.2774 2.91505C9.42638 2.65765 9.70124 2.49915 9.99865 2.49915C10.2961 2.49915 10.5709 2.65765 10.7199 2.91505L18.4416 16.2484C18.5904 16.5061 18.5904 16.8236 18.4418 17.0814C18.2931 17.3391 18.0183 17.4981 17.7207 17.4984H17.7216ZM9.9999 4.99839L3.72407 15.8317H16.2774L9.9999 4.99839ZM10.8291 12.4992H9.1624V8.33172H10.8291V12.4992Z" fill="currentColor"></path>
        <path d="M9.16657 13.3334H10.8332V15.0001H9.16657V13.3334Z" ></path>
      </g>
    </g>
  </symbol>
    <symbol fill="none" xmlns="http://www.w3.org/2000/svg" viewBox="0 0 20 20" id="fake-checker">
    <g id="ic/external link">
      <path id="coolicon" d="M14.1674 16.6666H5.00077C4.0803 16.6666 3.33411 15.9205 3.33411 15V5.83331C3.33411 4.91284 4.0803 4.16665 5.00077 4.16665H8.33411V5.83331H5.00077V15H14.1674V11.6666H15.8341V15C15.8341 15.9205 15.0879 16.6666 14.1674 16.6666ZM9.75077 11.4225L8.57577 10.2441L13.8199 4.99998H10.8341V3.33331H16.6674V9.16665H15.0008V6.17915L9.75077 11.4225Z"  fill="currentColor"></path>
    </g>
  </symbol>
  <symbol fill="none" xmlns="http://www.w3.org/2000/svg" viewBox="0 0 20 20" id="folder">
    <g id="ic/folder">
      <path id="coolicon" d="M15 16.6667H2.49996C2.27878 16.669 2.06609 16.5817 1.91023 16.4247C1.75438 16.2678 1.66862 16.0545 1.67246 15.8333H1.66663V4.16667C1.66663 3.24619 2.41282 2.5 3.33329 2.5H8.33329C8.51943 2.50018 8.70014 2.56266 8.84663 2.6775L10.75 4.16667H15C15.9204 4.16667 16.6666 4.91286 16.6666 5.83333V9.16667H17.5C17.7801 9.1667 18.0414 9.30746 18.1956 9.54133C18.3498 9.77519 18.3762 10.0709 18.2658 10.3283L15.7658 16.1617C15.6345 16.468 15.3333 16.6667 15 16.6667ZM5.54996 10.8333L3.76413 15H14.4508L16.2366 10.8333H5.54996ZM3.33329 5.83333V11.775L4.23413 9.67167C4.36545 9.36533 4.66666 9.1667 4.99996 9.16667H15V5.83333H3.33329Z"  fill="currentColor"></path>
    </g>
  </symbol>
  <symbol fill="none" xmlns="http://www.w3.org/2000/svg" viewBox="0 0 17 17" id="notification">
    <g id="ic/notification">
      <path id="coolicon" d="M10 18.3333C9.07957 18.3333 8.33337 17.5871 8.33337 16.6666H11.6667C11.6667 17.5871 10.9205 18.3333 10 18.3333ZM16.6667 15.8333H3.33337V14.1666L5.00004 13.3333V8.74996C5.00004 5.86496 6.18421 3.99413 8.33337 3.48329V1.66663H11.6667V3.48329C13.8159 3.99329 15 5.86329 15 8.74996V13.3333L16.6667 14.1666V15.8333ZM10 4.79163C8.9831 4.72596 8.00236 5.18102 7.39587 5.99996C6.87716 6.82042 6.62266 7.78028 6.66671 8.74996V14.1666H13.3334V8.74996C13.3774 7.78028 13.1229 6.82045 12.6042 5.99996C11.9977 5.18102 11.017 4.72596 10 4.79163Z" fill="currentColor"></path>
    </g>
  </symbol>
  <symbol fill="none" xmlns="http://www.w3.org/2000/svg"  id="personal-tapes">
    <g id="ic/settings2">
      <path id="coolicon" d="M6.66663 16.6667C5.14601 16.6675 3.81761 15.639 3.43746 14.1667H1.66663V12.5H3.43829C3.87133 10.8229 5.51672 9.7569 7.22436 10.0472C8.932 10.3374 10.1328 11.8872 9.98734 13.6132C9.84192 15.3392 8.39876 16.6663 6.66663 16.6667ZM6.66663 11.6667C5.75612 11.6676 5.01487 12.3991 5.00182 13.3095C4.98877 14.2199 5.70876 14.9723 6.61887 14.9993C7.52897 15.0263 8.29232 14.3179 8.33329 13.4084V13.7417V13.3334C8.33329 12.4129 7.5871 11.6667 6.66663 11.6667ZM18.3333 14.1667H10.8333V12.5H18.3333V14.1667ZM10.8333 10C9.31298 10.0004 7.98504 8.97206 7.60496 7.50002H1.66663V5.83336H7.60496C8.03799 4.15623 9.68339 3.09023 11.391 3.38049C13.0987 3.67075 14.2994 5.22054 14.154 6.94655C14.0086 8.67257 12.5654 9.99958 10.8333 10ZM10.8333 5.00002C9.92279 5.00095 9.18153 5.7324 9.16849 6.64281C9.15544 7.55322 9.87543 8.30561 10.7855 8.33262C11.6956 8.35964 12.459 7.65127 12.5 6.74169V7.07502V6.66669C12.5 5.74622 11.7538 5.00002 10.8333 5.00002ZM18.3333 7.50002H15V5.83336H18.3333V7.50002Z" fill="currentColor"></path>
    </g>
  </symbol>
  <symbol fill="none" xmlns="http://www.w3.org/2000/svg"  id="persons">
    <g id="ic/persons">
      <g id="coolicon">
        <path d="M7.49996 2.5C5.19877 2.5 3.33329 4.36548 3.33329 6.66667C3.33329 8.96785 5.19877 10.8333 7.49996 10.8333C9.80115 10.8333 11.6666 8.96785 11.6666 6.66667C11.6666 4.36548 9.80115 2.5 7.49996 2.5ZM4.99996 6.66667C4.99996 5.28595 6.11925 4.16667 7.49996 4.16667C8.88067 4.16667 9.99996 5.28595 9.99996 6.66667C9.99996 8.04738 8.88067 9.16667 7.49996 9.16667C6.11925 9.16667 4.99996 8.04738 4.99996 6.66667Z"  fill="currentColor"></path>
        <path d="M14.0903 6.84857C13.8559 6.72903 13.5964 6.66672 13.3333 6.66672V5.00005C13.8596 5.00005 14.3785 5.12464 14.8474 5.36371C14.899 5.39004 14.9499 5.41768 15 5.44658C15.4045 5.68011 15.7559 5.99641 16.031 6.37546C16.3402 6.80143 16.5441 7.29456 16.626 7.81447C16.7079 8.33439 16.6656 8.86631 16.5024 9.36671C16.3392 9.86711 16.0599 10.3218 15.6872 10.6934C15.3146 11.0651 14.8592 11.3433 14.3584 11.5051C13.9127 11.6492 13.4423 11.6975 12.9779 11.6477C12.9204 11.6415 12.863 11.6338 12.8058 11.6247C12.2865 11.5414 11.7942 11.3365 11.3692 11.0266L11.3684 11.0259L12.3508 9.67964C12.5634 9.83476 12.8097 9.93731 13.0696 9.97895C13.3294 10.0206 13.5954 10.0001 13.8458 9.91919C14.0962 9.83826 14.3239 9.69919 14.5102 9.51335C14.6965 9.32752 14.8362 9.1002 14.9178 8.85001C14.9994 8.59981 15.0206 8.33386 14.9796 8.07391C14.9386 7.81396 14.8367 7.56741 14.6821 7.35443C14.5276 7.14145 14.3248 6.9681 14.0903 6.84857Z"  fill="currentColor"></path>
        <path d="M16.665 17.5C16.665 17.0625 16.5789 16.6292 16.4114 16.225C16.244 15.8208 15.9986 15.4535 15.6892 15.1441C15.3798 14.8347 15.0125 14.5893 14.6083 14.4219C14.2041 14.2544 13.7708 14.1682 13.3333 14.1682V12.5C13.9017 12.5 14.4653 12.5969 15 12.786C15.0829 12.8153 15.1652 12.8468 15.2467 12.8806C15.8533 13.1319 16.4045 13.5002 16.8688 13.9645C17.3331 14.4288 17.7014 14.98 17.9527 15.5866C17.9864 15.6681 18.018 15.7504 18.0473 15.8333C18.2364 16.368 18.3333 16.9316 18.3333 17.5H16.665Z" fill="currentColor"></path>
        <path d="M13.3333 17.5H11.6666C11.6666 15.1988 9.80115 13.3333 7.49996 13.3333C5.19877 13.3333 3.33329 15.1988 3.33329 17.5H1.66663C1.66663 14.2783 4.2783 11.6667 7.49996 11.6667C10.7216 11.6667 13.3333 14.2783 13.3333 17.5Z" fill="currentColor"></path>
      </g>
    </g>
  </symbol>
  <symbol fill="none" xmlns="http://www.w3.org/2000/svg"  id="reports">
    <g id="ic/file">
      <path id="coolicon" d="M15 18.3333H5.00004C4.07957 18.3333 3.33337 17.5871 3.33337 16.6666V3.33329C3.33337 2.41282 4.07957 1.66663 5.00004 1.66663H10.8334C10.8425 1.66702 10.8514 1.6687 10.86 1.67163C10.8682 1.67414 10.8766 1.67582 10.885 1.67663C10.9585 1.68134 11.0311 1.69562 11.1009 1.71913L11.1242 1.72663C11.1431 1.73303 11.1615 1.74083 11.1792 1.74996C11.27 1.79031 11.3527 1.84678 11.4234 1.91663L16.4234 6.91663C16.4932 6.98728 16.5497 7.07001 16.59 7.16079C16.5984 7.17913 16.6042 7.19829 16.6109 7.21746L16.6184 7.23913C16.6416 7.30862 16.6554 7.38094 16.6592 7.45413C16.6605 7.46178 16.6625 7.46931 16.665 7.47663C16.6665 7.48431 16.6671 7.49214 16.6668 7.49996V16.6666C16.6668 17.5871 15.9205 18.3333 15 18.3333ZM5.00004 3.33329V16.6666H15V8.33329H10.8334C10.3731 8.33329 10 7.9602 10 7.49996V3.33329H5.00004ZM11.6667 4.51163V6.66663H13.8217L11.6667 4.51163Z"  fill="currentColor"></path>
    </g>
  </symbol>
  <symbol fill="none" xmlns="http://www.w3.org/2000/svg"  id="settings">
    <g id="ic/settings">
      <path id="coolicon" d="M11.5166 18.3333H8.48323C8.09165 18.3333 7.75285 18.0608 7.66906 17.6783L7.32989 16.1083C6.87743 15.9101 6.44841 15.6621 6.05072 15.3691L4.51989 15.8566C4.14656 15.9757 3.74071 15.8185 3.54489 15.4791L2.02489 12.8533C1.83121 12.5137 1.89794 12.0854 2.18572 11.8208L3.37322 10.7375C3.31922 10.2467 3.31922 9.75153 3.37322 9.26079L2.18572 8.17996C1.89752 7.91527 1.83076 7.48639 2.02489 7.14663L3.54156 4.51913C3.73738 4.17971 4.14323 4.02257 4.51656 4.14163L6.04739 4.62913C6.25078 4.47842 6.4625 4.33931 6.68156 4.21246C6.89184 4.09387 7.10826 3.9865 7.32989 3.89079L7.66989 2.32246C7.75328 1.93993 8.09172 1.66704 8.48323 1.66663H11.5166C11.9081 1.66704 12.2465 1.93993 12.3299 2.32246L12.6732 3.89163C12.9072 3.99456 13.1351 4.11086 13.3557 4.23996C13.5615 4.35897 13.7604 4.48945 13.9516 4.63079L15.4832 4.14329C15.8563 4.02468 16.2617 4.18176 16.4574 4.52079L17.9741 7.14829C18.1677 7.48786 18.101 7.91622 17.8132 8.18079L16.6257 9.26413C16.6797 9.75487 16.6797 10.2501 16.6257 10.7408L17.8132 11.8241C18.101 12.0887 18.1677 12.5171 17.9741 12.8566L16.4574 15.4841C16.2617 15.8232 15.8563 15.9802 15.4832 15.8616L13.9516 15.3741C13.7577 15.5169 13.5563 15.649 13.3482 15.77C13.1297 15.8965 12.9044 16.0109 12.6732 16.1125L12.3299 17.6783C12.2462 18.0605 11.9078 18.333 11.5166 18.3333ZM6.34989 13.5241L7.03323 14.0241C7.18727 14.1376 7.34782 14.2419 7.51406 14.3366C7.67048 14.4272 7.83153 14.5095 7.99656 14.5833L8.77406 14.9241L9.15489 16.6666H10.8466L11.2274 14.9233L12.0049 14.5825C12.3443 14.4328 12.6665 14.2467 12.9657 14.0275L13.6499 13.5275L15.3507 14.0691L16.1966 12.6041L14.8774 11.4016L14.9707 10.5583C15.0117 10.1894 15.0117 9.81716 14.9707 9.44829L14.8774 8.60496L16.1974 7.39996L15.3507 5.93413L13.6499 6.47579L12.9657 5.97579C12.6664 5.75555 12.3443 5.56809 12.0049 5.41663L11.2274 5.07579L10.8466 3.33329H9.15489L8.77239 5.07663L7.99656 5.41663C7.8314 5.48916 7.67032 5.57067 7.51406 5.66079C7.34884 5.75523 7.18914 5.85901 7.03572 5.97163L6.35156 6.47163L4.65156 5.92996L3.80406 7.39996L5.12322 8.60079L5.02989 9.44496C4.98889 9.81382 4.98889 10.1861 5.02989 10.555L5.12322 11.3983L3.80406 12.6008L4.64989 14.0658L6.34989 13.5241ZM9.99656 13.3333C8.15561 13.3333 6.66322 11.8409 6.66322 9.99996C6.66322 8.15901 8.15561 6.66663 9.99656 6.66663C11.8375 6.66663 13.3299 8.15901 13.3299 9.99996C13.3276 11.84 11.8366 13.331 9.99656 13.3333ZM9.99656 8.33329C9.08605 8.33422 8.3448 9.06567 8.33175 9.97608C8.3187 10.8865 9.0387 11.6389 9.9488 11.6659C10.8589 11.6929 11.6223 10.9845 11.6632 10.075V10.4083V9.99996C11.6632 9.07948 10.917 8.33329 9.99656 8.33329Z"  fill="currentColor"></path>
    </g>
  </symbol>
  <symbol fill="none" xmlns="http://www.w3.org/2000/svg"  id="sources">
    <g id="ic/compass" clip-path="url(#clip0_4246_3195)">
      <path id="Vector (Stroke)" fill-rule="evenodd" clip-rule="evenodd" d="M10 2.50004C5.8579 2.50004 2.50004 5.8579 2.50004 10C2.50004 14.1422 5.8579 17.5 10 17.5C14.1422 17.5 17.5 14.1422 17.5 10C17.5 5.8579 14.1422 2.50004 10 2.50004ZM0.833374 10C0.833374 4.93743 4.93743 0.833374 10 0.833374C15.0626 0.833374 19.1667 4.93743 19.1667 10C19.1667 15.0626 15.0626 19.1667 10 19.1667C4.93743 19.1667 0.833374 15.0626 0.833374 10Z"  fill="currentColor"></path>
      <path id="Vector (Stroke)_2" fill-rule="evenodd" clip-rule="evenodd" d="M14.1226 5.8774C14.3458 6.10059 14.4237 6.43073 14.3239 6.73018L12.5572 12.0302C12.4743 12.279 12.279 12.4743 12.0302 12.5572L6.73018 14.3239C6.43073 14.4237 6.10059 14.3458 5.8774 14.1226C5.65421 13.8994 5.57627 13.5692 5.67609 13.2698L7.44275 7.9698C7.5257 7.72096 7.72096 7.5257 7.9698 7.44275L13.2698 5.67609C13.5692 5.57627 13.8994 5.65421 14.1226 5.8774ZM8.89213 8.89213L7.78427 12.2157L11.1078 11.1078L12.2157 7.78427L8.89213 8.89213Z" fill="currentColor"></path>
    </g>
    <defs>
      <clipPath id="clip0_4246_3195">
        <rect width="20" height="20" fill="white"></rect>
      </clipPath>
    </defs>
  </symbol>
  <symbol fill="none" xmlns="http://www.w3.org/2000/svg"  id="statistics">
    <g id="ic/pie chart">
      <path id="coolicon" d="M10.0426 18.2909C5.60519 18.287 1.94909 14.8066 1.72693 10.3747C1.50477 5.94287 4.79449 2.11426 9.20929 1.66669V5.03335C6.70147 5.45717 4.91254 7.6977 5.0544 10.2371C5.19626 12.7765 7.2236 14.8039 9.76302 14.9457C12.3024 15.0876 14.543 13.2987 14.9668 10.7909H18.3335C17.8999 15.0463 14.3193 18.2851 10.0418 18.2909H10.0426ZM18.3343 9.12419H14.9676C14.613 7.02894 12.9713 5.38757 10.876 5.03335V1.66669C14.8152 2.07001 17.9297 5.18417 18.3335 9.12335L18.3343 9.12419Z"  fill="currentColor"></path>
    </g>
  </symbol>
  <symbol fill="none" xmlns="http://www.w3.org/2000/svg"  id="technical-indicators">
    <g id="ic/chart">
      <path id="coolicon" d="M15.8333 17.5H4.16667C3.24619 17.5 2.5 16.7538 2.5 15.8333V4.16667C2.5 3.24619 3.24619 2.5 4.16667 2.5H15.8333C16.7538 2.5 17.5 3.24619 17.5 4.16667V15.8333C17.5 16.7538 16.7538 17.5 15.8333 17.5ZM4.16667 4.16667V15.8333H15.8333V4.16667H4.16667ZM14.1667 14.1667H12.5V8.33333H14.1667V14.1667ZM10.8333 14.1667H9.16667V5.83333H10.8333V14.1667ZM7.5 14.1667H5.83333V10H7.5V14.1667Z"  fill="currentColor"></path>
    </g>
  </symbol>
  <symbol fill="none" xmlns="http://www.w3.org/2000/svg"  id="transcription">
    <g id="ic/highlight">
      <path id="Vector (Stroke)" fill-rule="evenodd" clip-rule="evenodd" d="M9.16663 16.6667C9.16663 16.2065 9.53972 15.8334 9.99996 15.8334H17.5C17.9602 15.8334 18.3333 16.2065 18.3333 16.6667C18.3333 17.1269 17.9602 17.5 17.5 17.5H9.99996C9.53972 17.5 9.16663 17.1269 9.16663 16.6667Z"  fill="currentColor"></path>
      <path id="coolicon" d="M3.68333 17.1492C3.44956 17.1488 3.22672 17.0502 3.06916 16.8775C2.9087 16.7062 2.82896 16.4746 2.84999 16.2408L3.05416 13.9958L12.4858 4.5675L15.4333 7.51417L6.00416 16.9417L3.75916 17.1458C3.73333 17.1483 3.70749 17.1492 3.68333 17.1492ZM16.0217 6.925L13.075 3.97834L14.8425 2.21084C14.9988 2.05436 15.2109 1.96643 15.4321 1.96643C15.6533 1.96643 15.8654 2.05436 16.0217 2.21084L17.7892 3.97834C17.9456 4.13464 18.0336 4.34675 18.0336 4.56792C18.0336 4.78909 17.9456 5.0012 17.7892 5.1575L16.0225 6.92417L16.0217 6.925Z"  fill="currentColor"></path>
    </g>
  </symbol>
  <symbol fill="none" xmlns="http://www.w3.org/2000/svg" id="info"> 
  <g id="ic/info">
    <path id="coolicon" d="M9.99996 18.3333C5.39759 18.3333 1.66663 14.6023 1.66663 9.99996C1.66663 5.39759 5.39759 1.66663 9.99996 1.66663C14.6023 1.66663 18.3333 5.39759 18.3333 9.99996C18.3282 14.6002 14.6002 18.3282 9.99996 18.3333ZM3.33329 10.1433C3.37272 13.811 6.36755 16.7579 10.0354 16.7383C13.7033 16.7185 16.6662 13.7395 16.6662 10.0716C16.6662 6.40371 13.7033 3.42477 10.0354 3.40496C6.36755 3.38534 3.37272 6.33226 3.33329 9.99996V10.1433ZM11.6666 14.1666H9.16663V10.8333H8.33329V9.16663H10.8333V12.5H11.6666V14.1666ZM10.8333 7.49996H9.16663V5.83329H10.8333V7.49996Z" fill="currentColor"/>
  </g>
</symbol>
<svg width="0" height="0" class="hidden">
  <symbol fill="none" xmlns="http://www.w3.org/2000/svg" viewBox="0 0 20 20" id="eye">
    <g id="ic/eye">
      <path id="coolicon" d="M9.99996 15.8334C8.63319 15.8504 7.28054 15.5554 6.04496 14.9709C5.0872 14.5036 4.22717 13.8582 3.51079 13.0692C2.75199 12.2535 2.15452 11.3014 1.74996 10.2634L1.66663 10L1.75413 9.73671C2.15897 8.69957 2.75516 7.74777 3.51163 6.93088C4.22774 6.14197 5.08749 5.4966 6.04496 5.02921C7.28055 4.4447 8.63319 4.14972 9.99996 4.16671C11.3667 4.14975 12.7194 4.44473 13.955 5.02921C14.9127 5.49649 15.7728 6.14187 16.4891 6.93088C17.2494 7.74551 17.847 8.69785 18.25 9.73671L18.3333 10L18.2458 10.2634C16.9385 13.6665 13.6451 15.8912 9.99996 15.8334ZM9.99996 5.83338C7.16318 5.74448 4.55947 7.39596 3.43079 10C4.55929 12.6043 7.16312 14.2558 9.99996 14.1667C12.8367 14.2554 15.4403 12.604 16.5691 10C15.4419 7.39469 12.8372 5.74261 9.99996 5.83338ZM9.99996 12.5C8.79773 12.508 7.75777 11.6645 7.51743 10.4865C7.2771 9.30853 7.90352 8.12506 9.01278 7.66143C10.122 7.19779 11.4043 7.58349 12.0737 8.58213C12.7432 9.58078 12.6128 10.9134 11.7625 11.7634C11.2969 12.2344 10.6623 12.4997 9.99996 12.5Z" fill="#949FB7"></path>
    </g>
  </symbol>
  <symbol fill="none" xmlns="http://www.w3.org/2000/svg" viewBox="0 0 20 20" id="like">
    <g id="ic/like">
      <path id="coolicon" d="M9.99998 17.5C9.46248 17.0233 8.85498 16.5275 8.21248 16H8.20415C5.94165 14.15 3.37748 12.0566 2.24498 9.54829C1.87291 8.74973 1.67573 7.8809 1.66664 6.99996C1.66415 5.7912 2.14895 4.63245 3.01149 3.7856C3.87402 2.93875 5.04147 2.47529 6.24998 2.49996C7.23384 2.50151 8.19651 2.78586 9.02331 3.31913C9.38662 3.55493 9.71533 3.84017 9.99998 4.16663C10.2862 3.84145 10.615 3.55638 10.9775 3.31913C11.8039 2.78576 12.7664 2.50139 13.75 2.49996C14.9585 2.47529 16.1259 2.93875 16.9885 3.7856C17.851 4.63245 18.3358 5.7912 18.3333 6.99996C18.3248 7.88231 18.1276 8.75262 17.755 9.55246C16.6225 12.0608 14.0591 14.1533 11.7966 16L11.7883 16.0066C11.145 16.5308 10.5383 17.0266 10.0008 17.5066L9.99998 17.5ZM6.24998 4.16663C5.47374 4.15691 4.72504 4.454 4.16665 4.99329C3.62863 5.52176 3.32794 6.24583 3.33324 6.99996C3.34275 7.64204 3.48817 8.27484 3.75998 8.85663C4.29457 9.93888 5.0159 10.9183 5.89081 11.75C6.71665 12.5833 7.66665 13.39 8.48831 14.0683C8.71581 14.2558 8.94748 14.445 9.17915 14.6341L9.32498 14.7533C9.54748 14.935 9.77748 15.1233 9.99998 15.3083L10.0108 15.2983L10.0158 15.2941H10.0208L10.0283 15.2883H10.0325H10.0366L10.0516 15.2758L10.0858 15.2483L10.0916 15.2433L10.1008 15.2366H10.1058L10.1133 15.23L10.6666 14.7758L10.8116 14.6566C11.0458 14.4658 11.2775 14.2766 11.505 14.0891C12.3266 13.4108 13.2775 12.605 14.1033 11.7675C14.9783 10.9363 15.6997 9.95706 16.2341 8.87496C16.5109 8.28813 16.6584 7.64872 16.6667 6.99996C16.6701 6.24816 16.3696 5.52687 15.8333 4.99996C15.276 4.45823 14.5272 4.1587 13.75 4.16663C12.8016 4.15857 11.8949 4.5561 11.2583 5.25913L9.99998 6.70913L8.74165 5.25913C8.10503 4.5561 7.19838 4.15857 6.24998 4.16663Z" fill="#949FB7"></path>
    </g>
  </symbol>
  <symbol fill="none" xmlns="http://www.w3.org/2000/svg" viewBox="0 0 20 20" id="location">
    <g id="ic/location">
      <path id="coolicon" d="M9.99996 17.5C8.9474 16.6022 7.97178 15.618 7.08329 14.5575C5.74996 12.965 4.16663 10.5934 4.16663 8.33338C4.16544 5.973 5.58683 3.84453 7.76752 2.94121C9.9482 2.03788 12.4583 2.53774 14.1266 4.20754C15.2237 5.29972 15.8382 6.78537 15.8333 8.33338C15.8333 10.5934 14.25 12.965 12.9166 14.5575C12.0281 15.618 11.0525 16.6022 9.99996 17.5ZM9.99996 4.16671C7.69992 4.16946 5.83605 6.03333 5.83329 8.33338C5.83329 9.30504 6.27246 10.9875 8.36246 13.4884C8.87758 14.1034 9.42414 14.6914 9.99996 15.25C10.5758 14.6921 11.1227 14.1049 11.6383 13.4909C13.7275 10.9867 14.1666 9.30421 14.1666 8.33338C14.1639 6.03333 12.3 4.16946 9.99996 4.16671ZM9.99996 10.8334C8.61925 10.8334 7.49996 9.71409 7.49996 8.33338C7.49996 6.95266 8.61925 5.83338 9.99996 5.83338C11.3807 5.83338 12.5 6.95266 12.5 8.33338C12.5 8.99642 12.2366 9.6323 11.7677 10.1011C11.2989 10.57 10.663 10.8334 9.99996 10.8334Z" fill="#949FB7"></path>
    </g>
  </symbol>
  <symbol fill="none" xmlns="http://www.w3.org/2000/svg" viewBox="0 0 20 20" id="message">
    <g id="ic/message">
      <path id="coolicon" d="M2.5 17.5V4.16667C2.5 3.24619 3.24619 2.5 4.16667 2.5H15.8333C16.7538 2.5 17.5 3.24619 17.5 4.16667V12.5C17.5 13.4205 16.7538 14.1667 15.8333 14.1667H7.5C7.13928 14.166 6.78818 14.283 6.5 14.5L2.5 17.5ZM4.16667 4.16667V14.1667L5.945 12.8333C6.23304 12.6161 6.58423 12.499 6.945 12.5H15.8333V4.16667H4.16667Z" fill="#949FB7"></path>
    </g>
  </symbol>
  <symbol fill="none" xmlns="http://www.w3.org/2000/svg" viewBox="0 0 20 20" id="share">
    <g id="ic/share">
      <path id="Mask" fill-rule="evenodd" clip-rule="evenodd" d="M8.71171 9.58328C11.6809 9.58328 14.3592 10.9449 16.0534 13.1324C15.2742 9.90828 12.2784 7.49995 8.71171 7.49995C8.25087 7.49995 7.87837 7.12745 7.87837 6.66661V5.06411L3.85837 8.54245L7.87837 12.0524V10.4166C7.87837 9.95578 8.25087 9.58328 8.71171 9.58328ZM16.8509 17.4999C16.4667 17.4999 16.1317 17.2374 16.0409 16.8641C15.2992 13.8233 12.69 11.6266 9.54504 11.2941V12.2283C9.54504 12.8166 9.19587 13.3408 8.63421 13.5949C8.02504 13.8724 7.31421 13.7724 6.82004 13.3416L2.59837 9.65494C2.27087 9.36828 2.08337 8.96244 2.08337 8.54161C2.08337 8.12078 2.27087 7.71494 2.59837 7.42828L6.82004 3.74161C7.31421 3.31078 8.02504 3.21078 8.63421 3.48828C9.19587 3.74244 9.54504 4.26661 9.54504 4.85494V5.86994C14.2317 6.28078 17.9167 10.1249 17.9167 14.7916C17.9167 15.4666 17.83 16.1633 17.66 16.8633C17.57 17.2374 17.2359 17.4999 16.8509 17.4999Z" fill="#949FB7"></path>
    </g>
  </symbol>
</svg>
<svg width="0" height="0" class="hidden">
  <symbol fill="none" xmlns="http://www.w3.org/2000/svg" viewBox="0 0 24 24" id="arrow-right">
    <g id="ic/arrow/right">
      <path id="coolicon" d="M16.7126 12.0005L10.7026 5.9905L9.2876 7.4035L13.8876 12.0005L9.2876 16.5965L10.7016 18.0105L16.7126 12.0005Z" fill="currentColor"></path>
    </g>
  </symbol>
</svg>
<svg width="0" height="0" class="hidden">
  <symbol fill="none" xmlns="http://www.w3.org/2000/svg" viewBox="0 0 20 20" id="lock">
    <g id="ic/lock">
      <path id="Mask" fill-rule="evenodd" clip-rule="evenodd" d="M10.0002 13.3333C9.54016 13.3333 9.16683 12.96 9.16683 12.5C9.16683 12.04 9.54016 11.6666 10.0002 11.6666C10.4602 11.6666 10.8335 12.04 10.8335 12.5C10.8335 12.96 10.4602 13.3333 10.0002 13.3333ZM10.0002 9.99996C8.62183 9.99996 7.50016 11.1216 7.50016 12.5C7.50016 13.8783 8.62183 15 10.0002 15C11.3785 15 12.5002 13.8783 12.5002 12.5C12.5002 11.1216 11.3785 9.99996 10.0002 9.99996ZM15.0002 15.8333C15.0002 16.2933 14.6268 16.6666 14.1668 16.6666H5.8335C5.3735 16.6666 5.00016 16.2933 5.00016 15.8333V9.16663C5.00016 8.70663 5.3735 8.33329 5.8335 8.33329H6.66683H8.3335H11.6668H13.3335H14.1668C14.6268 8.33329 15.0002 8.70663 15.0002 9.16663V15.8333ZM8.3335 5.09246C8.3335 4.12246 9.081 3.33329 10.0002 3.33329C10.9193 3.33329 11.6668 4.12246 11.6668 5.09246V6.66663H8.3335V5.09246ZM14.1668 6.66663H13.3335V5.09246C13.3335 3.20413 11.8385 1.66663 10.0002 1.66663C8.16183 1.66663 6.66683 3.20413 6.66683 5.09246V6.66663H5.8335C4.45516 6.66663 3.3335 7.78829 3.3335 9.16663V15.8333C3.3335 17.2116 4.45516 18.3333 5.8335 18.3333H14.1668C15.5452 18.3333 16.6668 17.2116 16.6668 15.8333V9.16663C16.6668 7.78829 15.5452 6.66663 14.1668 6.66663Z" fill="#032887"></path>
    </g>
  </symbol>
</svg>
<svg width="0" height="0" class="hidden">
  <symbol fill="none" xmlns="http://www.w3.org/2000/svg" viewBox="0 0 20 21" id="menu">
    <g id="ic/menu">
      <path id="coolicon" d="M8.33341 15.5C8.33341 14.5795 9.07961 13.8333 10.0001 13.8333C10.9206 13.8333 11.6667 14.5795 11.6667 15.5C11.6667 16.4205 10.9206 17.1666 10.0001 17.1666C9.55805 17.1666 9.13413 16.9911 8.82157 16.6785C8.50901 16.3659 8.33341 15.942 8.33341 15.5ZM8.33341 10.5C8.33341 9.5795 9.07961 8.83331 10.0001 8.83331C10.9206 8.83331 11.6667 9.5795 11.6667 10.5C11.6667 11.4205 10.9206 12.1666 10.0001 12.1666C9.55805 12.1666 9.13413 11.9911 8.82157 11.6785C8.50901 11.3659 8.33341 10.942 8.33341 10.5ZM8.33341 5.49998C8.33341 4.5795 9.07961 3.83331 10.0001 3.83331C10.9206 3.83331 11.6667 4.57951 11.6667 5.49998C11.6667 6.42045 10.9206 7.16665 10.0001 7.16665C9.55805 7.16665 9.13413 6.99105 8.82157 6.67849C8.50901 6.36593 8.33341 5.94201 8.33341 5.49998Z" fill="#949FB7"></path>
    </g>
  </symbol>
  <symbol fill="none" xmlns="http://www.w3.org/2000/svg" viewBox="0 0 18 17" id="pin">
    <g id="Group">
      <path id="Vector" d="M11.2585 0.408345C11.1808 0.330647 11.0885 0.269013 10.987 0.226962C10.8855 0.184912 10.7767 0.163269 10.6668 0.163269C10.5569 0.163269 10.4481 0.184912 10.3466 0.226962C10.2451 0.269013 10.1528 0.330647 10.0751 0.408345C9.9182 0.565265 9.83004 0.778094 9.83004 1.00001C9.83004 1.22193 9.9182 1.43476 10.0751 1.59168L10.2418 1.75835L3.57511 6.92501L2.90011 6.24168C2.74319 6.08476 2.53036 5.9966 2.30845 5.9966C2.08653 5.9966 1.8737 6.08476 1.71678 6.24168C1.55986 6.3986 1.4717 6.61143 1.4717 6.83334C1.4717 7.05526 1.55986 7.26809 1.71678 7.42501L5.31678 11L0.950112 15.3667C0.872005 15.4441 0.81001 15.5363 0.767702 15.6379C0.725395 15.7394 0.703613 15.8483 0.703613 15.9583C0.703613 16.0684 0.725395 16.1773 0.767702 16.2788C0.81001 16.3804 0.872005 16.4725 0.950112 16.55C1.02758 16.6281 1.11975 16.6901 1.2213 16.7324C1.32285 16.7747 1.43177 16.7965 1.54178 16.7965C1.65179 16.7965 1.76071 16.7747 1.86226 16.7324C1.96381 16.6901 2.05598 16.6281 2.13345 16.55L6.50011 12.1667L10.0751 15.7333C10.1526 15.8114 10.2448 15.8734 10.3463 15.9158C10.4479 15.9581 10.5568 15.9798 10.6668 15.9798C10.7768 15.9798 10.8857 15.9581 10.9873 15.9158C11.0888 15.8734 11.181 15.8114 11.2585 15.7333C11.3366 15.6559 11.3986 15.5637 11.4409 15.4622C11.4832 15.3606 11.5049 15.2517 11.5049 15.1417C11.5049 15.0317 11.4832 14.9227 11.4409 14.8212C11.3986 14.7196 11.3366 14.6275 11.2585 14.55L10.5918 13.8833L15.7418 7.21668L15.9085 7.38334C15.9859 7.46145 16.0781 7.52345 16.1796 7.56575C16.2812 7.60806 16.3901 7.62984 16.5001 7.62984C16.6101 7.62984 16.7191 7.60806 16.8206 7.56575C16.9221 7.52345 17.0143 7.46145 17.0918 7.38334C17.1699 7.30587 17.2319 7.21371 17.2742 7.11216C17.3165 7.01061 17.3383 6.90169 17.3383 6.79168C17.3383 6.68167 17.3165 6.57275 17.2742 6.4712C17.2319 6.36965 17.1699 6.27748 17.0918 6.20001L11.2585 0.408345ZM9.40012 12.6667L4.83345 8.10834L11.5001 2.94168L14.6251 6.06668L9.40012 12.6667Z" fill="#949FB7"></path>
    </g>
  </symbol>
</svg>
<svg width="0" height="0" class="hidden">
  <symbol fill="none" xmlns="http://www.w3.org/2000/svg" viewBox="0 0 20 20" id="close">
    <g id="ic/close">
      <path id="coolicon" d="M14.6584 4.16675L10.0001 8.82508L5.34175 4.16675L4.16675 5.34175L8.82508 10.0001L4.16675 14.6584L5.34175 15.8334L10.0001 11.1751L14.6584 15.8334L15.8334 14.6584L11.1751 10.0001L15.8334 5.34175L14.6584 4.16675Z" fill="#949FB7"></path>
    </g>
  </symbol>
</svg>
<svg width="0" height="0" class="hidden">
  <symbol fill="none" xmlns="http://www.w3.org/2000/svg" viewBox="0 0 32 32" id="pause">
    <g id="ic/pause">
      <path id="coolicon" d="M16.0001 29.3334C8.63628 29.3334 2.66675 23.3639 2.66675 16.0001C2.66675 8.63628 8.63628 2.66675 16.0001 2.66675C23.3639 2.66675 29.3334 8.63628 29.3334 16.0001C29.3253 23.3605 23.3605 29.3253 16.0001 29.3334ZM17.3334 10.6667V21.3334H20.0001V10.6667H17.3334ZM12.0001 10.6667V21.3334H14.6667V10.6667H12.0001Z" fill="#949FB7"></path>
    </g>
  </symbol>
</svg>
<svg width="0" height="0" class="hidden">
  <symbol fill="none" xmlns="http://www.w3.org/2000/svg" viewBox="0 0 20 20" id="copy">
    <g id="ic/copy">
      <path id="coolicon" d="M11.6665 18.3334H3.33317C2.88656 18.3489 2.45356 18.1783 2.13757 17.8623C1.82159 17.5463 1.65098 17.1133 1.6665 16.6667V8.33341C1.65098 7.88681 1.82159 7.45381 2.13757 7.13782C2.45356 6.82183 2.88656 6.65123 3.33317 6.66674H6.6665V3.33341C6.65098 2.88681 6.82159 2.45381 7.13758 2.13782C7.45356 1.82183 7.88656 1.65123 8.33317 1.66675H16.6665C17.1131 1.65123 17.5461 1.82183 17.8621 2.13782C18.1781 2.45381 18.3487 2.88681 18.3332 3.33341V11.6667C18.3484 12.1133 18.1777 12.5461 17.8618 12.8621C17.5459 13.178 17.113 13.3487 16.6665 13.3334H13.3332V16.6667C13.3484 17.1133 13.1778 17.5461 12.8618 17.8621C12.5459 18.178 12.113 18.3487 11.6665 18.3334ZM3.33317 8.33341V16.6667H11.6665V13.3334H8.33317C7.88663 13.3487 7.45378 13.178 7.13785 12.8621C6.82192 12.5461 6.65123 12.1133 6.6665 11.6667V8.33341H3.33317ZM8.33317 3.33341V11.6667H16.6665V3.33341H8.33317Z" fill="currentColor"></path>
    </g>
  </symbol>
  <symbol fill="none" xmlns="http://www.w3.org/2000/svg" viewBox="0 0 20 20" id="down">
    <g id="ic/arrow/down">
      <path id="coolicon" d="M10 13.9275L15.0084 8.91916L13.8309 7.73999L10 11.5733L6.17003 7.73999L4.9917 8.91832L10 13.9275Z" fill="white"></path>
    </g>
  </symbol>
  <symbol fill="none" xmlns="http://www.w3.org/2000/svg" viewBox="0 0 20 20" id="edit">
    <g id="ic/edit">
      <path id="coolicon" d="M3.68333 17.149C3.44956 17.1486 3.22672 17.0501 3.06916 16.8774C2.9087 16.7061 2.82896 16.4745 2.84999 16.2407L3.05416 13.9957L12.4858 4.56738L15.4333 7.51405L6.00416 16.9415L3.75916 17.1457C3.73333 17.1482 3.70749 17.149 3.68333 17.149ZM16.0217 6.92488L13.075 3.97821L14.8425 2.21071C14.9988 2.05423 15.2109 1.96631 15.4321 1.96631C15.6533 1.96631 15.8654 2.05423 16.0217 2.21071L17.7892 3.97821C17.9456 4.13452 18.0336 4.34662 18.0336 4.5678C18.0336 4.78897 17.9456 5.00107 17.7892 5.15738L16.0225 6.92405L16.0217 6.92488Z" fill="#949FB7"></path>
    </g>
  </symbol>
  <symbol fill="none" xmlns="http://www.w3.org/2000/svg" viewBox="0 0 20 20" id="tag">
    <g id="ic/tag">
      <path id="coolicon" d="M10.7476 18.3068C10.3051 18.3081 9.88047 18.1322 9.56846 17.8184L3.04013 11.2893C2.69562 10.9457 2.51897 10.4685 2.55679 9.98343L2.97346 4.51176C3.03288 3.68875 3.68862 3.03477 4.51179 2.97759L9.98346 2.56092C10.026 2.55176 10.0693 2.55176 10.1118 2.55176C10.5533 2.55289 10.9765 2.72841 11.2893 3.04009L17.8185 9.56842C18.1312 9.881 18.3069 10.305 18.3069 10.7472C18.3069 11.1893 18.1312 11.6133 17.8185 11.9259L11.926 17.8184C11.6142 18.132 11.1899 18.3079 10.7476 18.3068ZM10.111 4.21842L4.63513 4.63509L4.21846 10.1109L10.7476 16.6401L16.6393 10.7484L10.111 4.21842ZM7.21179 8.87843C6.41666 8.87859 5.73214 8.31706 5.57686 7.53723C5.42158 6.75741 5.8388 5.97649 6.57335 5.67208C7.3079 5.36766 8.1552 5.62452 8.59707 6.28558C9.03893 6.94663 8.95229 7.82776 8.39013 8.39009C8.07832 8.70369 7.65402 8.87953 7.21179 8.87843Z" fill="#949FB7"></path>
    </g>
  </symbol>
  <symbol fill="none" xmlns="http://www.w3.org/2000/svg" viewBox="0 0 20 20" id="trash">
    <g id="ic/trash">
      <path id="coolicon" d="M14.1667 18.3334H5.83333C4.91286 18.3334 4.16667 17.5872 4.16667 16.6667V5.83342H2.5V4.16675H5.83333V3.33341C5.83333 2.41294 6.57953 1.66675 7.5 1.66675H12.5C13.4205 1.66675 14.1667 2.41294 14.1667 3.33341V4.16675H17.5V5.83342H15.8333V16.6667C15.8333 17.5872 15.0871 18.3334 14.1667 18.3334ZM5.83333 5.83342V16.6667H14.1667V5.83342H5.83333ZM7.5 3.33341V4.16675H12.5V3.33341H7.5ZM12.5 15.0001H10.8333V7.50008H12.5V15.0001ZM9.16667 15.0001H7.5V7.50008H9.16667V15.0001Z" fill="#949FB7"></path>
    </g>
  </symbol>
</svg>
<svg width="0" height="0" class="hidden">
  <symbol fill="none" xmlns="http://www.w3.org/2000/svg" viewBox="0 0 24 24" id="arrow-left">
    <g id="ic/arrow/left">
      <path id="coolicon" d="M7.2874 12.0005L13.2974 18.0105L14.7124 16.5975L10.1124 12.0005L14.7124 7.40448L13.2984 5.99048L7.2874 12.0005Z" fill="currentColor"></path>
    </g>
  </symbol>
</svg>
<svg width="0" height="0" class="hidden">
  <symbol fill="none" xmlns="http://www.w3.org/2000/svg" viewBox="0 0 20 20" id="flag">
    <g id="Flag">
      <rect id="Rectangle" y="2" width="20" height="5.33333" fill="#F5F8FB"></rect>
      <rect id="Rectangle_2" y="7.3335" width="20" height="5.33333" fill="#41479B"></rect>
      <rect id="Rectangle_3" y="12.6665" width="20" height="5.33333" fill="#DC251C"></rect>
    </g>
  </symbol>
</svg>
</svg>