<svg width="20" height="20" viewBox="0 0 20 20" fill="none" xmlns="http://www.w3.org/2000/svg">
<g id="ic/notification">
<path id="coolicon" d="M10 18.3333C9.07957 18.3333 8.33337 17.5871 8.33337 16.6666H11.6667C11.6667 17.5871 10.9205 18.3333 10 18.3333ZM16.6667 15.8333H3.33337V14.1666L5.00004 13.3333V8.74996C5.00004 5.86496 6.18421 3.99413 8.33337 3.48329V1.66663H11.6667V3.48329C13.8159 3.99329 15 5.86329 15 8.74996V13.3333L16.6667 14.1666V15.8333ZM10 4.79163C8.9831 4.72596 8.00236 5.18102 7.39587 5.99996C6.87716 6.82042 6.62266 7.78028 6.66671 8.74996V14.1666H13.3334V8.74996C13.3774 7.78028 13.1229 6.82045 12.6042 5.99996C11.9977 5.18102 11.017 4.72596 10 4.79163Z" fill="#C1C8D7"/>
</g>
</svg>
