<svg width="20" height="20" viewBox="0 0 20 20" fill="none" xmlns="http://www.w3.org/2000/svg">
<g id="ic/file">
<path id="coolicon" d="M15 18.3333H5.00004C4.07957 18.3333 3.33337 17.5871 3.33337 16.6666V3.33329C3.33337 2.41282 4.07957 1.66663 5.00004 1.66663H10.8334C10.8425 1.66702 10.8514 1.6687 10.86 1.67163C10.8682 1.67414 10.8766 1.67582 10.885 1.67663C10.9585 1.68134 11.0311 1.69562 11.1009 1.71913L11.1242 1.72663C11.1431 1.73303 11.1615 1.74083 11.1792 1.74996C11.27 1.79031 11.3527 1.84678 11.4234 1.91663L16.4234 6.91663C16.4932 6.98728 16.5497 7.07001 16.59 7.16079C16.5984 7.17913 16.6042 7.19829 16.6109 7.21746L16.6184 7.23913C16.6416 7.30862 16.6554 7.38094 16.6592 7.45413C16.6605 7.46178 16.6625 7.46931 16.665 7.47663C16.6665 7.48431 16.6671 7.49214 16.6668 7.49996V16.6666C16.6668 17.5871 15.9205 18.3333 15 18.3333ZM5.00004 3.33329V16.6666H15V8.33329H10.8334C10.3731 8.33329 10 7.9602 10 7.49996V3.33329H5.00004ZM11.6667 4.51163V6.66663H13.8217L11.6667 4.51163Z" fill="#C1C8D7"/>
</g>
</svg>
