<svg width="20" height="20" viewBox="0 0 20 20" fill="none" xmlns="http://www.w3.org/2000/svg">
<g id="ic/eye">
<path id="coolicon" d="M9.99996 15.8334C8.63319 15.8504 7.28054 15.5554 6.04496 14.9709C5.0872 14.5036 4.22717 13.8582 3.51079 13.0692C2.75199 12.2535 2.15452 11.3014 1.74996 10.2634L1.66663 10L1.75413 9.73671C2.15897 8.69957 2.75516 7.74777 3.51163 6.93088C4.22774 6.14197 5.08749 5.4966 6.04496 5.02921C7.28055 4.4447 8.63319 4.14972 9.99996 4.16671C11.3667 4.14975 12.7194 4.44473 13.955 5.02921C14.9127 5.49649 15.7728 6.14187 16.4891 6.93088C17.2494 7.74551 17.847 8.69785 18.25 9.73671L18.3333 10L18.2458 10.2634C16.9385 13.6665 13.6451 15.8912 9.99996 15.8334ZM9.99996 5.83338C7.16318 5.74448 4.55947 7.39596 3.43079 10C4.55929 12.6043 7.16312 14.2558 9.99996 14.1667C12.8367 14.2554 15.4403 12.604 16.5691 10C15.4419 7.39469 12.8372 5.74261 9.99996 5.83338ZM9.99996 12.5C8.79773 12.508 7.75777 11.6645 7.51743 10.4865C7.2771 9.30853 7.90352 8.12506 9.01278 7.66143C10.122 7.19779 11.4043 7.58349 12.0737 8.58213C12.7432 9.58078 12.6128 10.9134 11.7625 11.7634C11.2969 12.2344 10.6623 12.4997 9.99996 12.5Z" fill="#949FB7"/>
</g>
</svg>
