<svg width="20" height="20" viewBox="0 0 20 20" fill="none" xmlns="http://www.w3.org/2000/svg">
<g id="ic/location">
<path id="coolicon" d="M9.99996 17.5C8.9474 16.6022 7.97178 15.618 7.08329 14.5575C5.74996 12.965 4.16663 10.5934 4.16663 8.33338C4.16544 5.973 5.58683 3.84453 7.76752 2.94121C9.9482 2.03788 12.4583 2.53774 14.1266 4.20754C15.2237 5.29972 15.8382 6.78537 15.8333 8.33338C15.8333 10.5934 14.25 12.965 12.9166 14.5575C12.0281 15.618 11.0525 16.6022 9.99996 17.5ZM9.99996 4.16671C7.69992 4.16946 5.83605 6.03333 5.83329 8.33338C5.83329 9.30504 6.27246 10.9875 8.36246 13.4884C8.87758 14.1034 9.42414 14.6914 9.99996 15.25C10.5758 14.6921 11.1227 14.1049 11.6383 13.4909C13.7275 10.9867 14.1666 9.30421 14.1666 8.33338C14.1639 6.03333 12.3 4.16946 9.99996 4.16671ZM9.99996 10.8334C8.61925 10.8334 7.49996 9.71409 7.49996 8.33338C7.49996 6.95266 8.61925 5.83338 9.99996 5.83338C11.3807 5.83338 12.5 6.95266 12.5 8.33338C12.5 8.99642 12.2366 9.6323 11.7677 10.1011C11.2989 10.57 10.663 10.8334 9.99996 10.8334Z" fill="#949FB7"/>
</g>
</svg>
