<svg width="20" height="20" viewBox="0 0 20 20" fill="none" xmlns="http://www.w3.org/2000/svg">
<g id="ic/lock">
<path id="Mask" fill-rule="evenodd" clip-rule="evenodd" d="M10.0002 13.3333C9.54016 13.3333 9.16683 12.96 9.16683 12.5C9.16683 12.04 9.54016 11.6666 10.0002 11.6666C10.4602 11.6666 10.8335 12.04 10.8335 12.5C10.8335 12.96 10.4602 13.3333 10.0002 13.3333ZM10.0002 9.99996C8.62183 9.99996 7.50016 11.1216 7.50016 12.5C7.50016 13.8783 8.62183 15 10.0002 15C11.3785 15 12.5002 13.8783 12.5002 12.5C12.5002 11.1216 11.3785 9.99996 10.0002 9.99996ZM15.0002 15.8333C15.0002 16.2933 14.6268 16.6666 14.1668 16.6666H5.8335C5.3735 16.6666 5.00016 16.2933 5.00016 15.8333V9.16663C5.00016 8.70663 5.3735 8.33329 5.8335 8.33329H6.66683H8.3335H11.6668H13.3335H14.1668C14.6268 8.33329 15.0002 8.70663 15.0002 9.16663V15.8333ZM8.3335 5.09246C8.3335 4.12246 9.081 3.33329 10.0002 3.33329C10.9193 3.33329 11.6668 4.12246 11.6668 5.09246V6.66663H8.3335V5.09246ZM14.1668 6.66663H13.3335V5.09246C13.3335 3.20413 11.8385 1.66663 10.0002 1.66663C8.16183 1.66663 6.66683 3.20413 6.66683 5.09246V6.66663H5.8335C4.45516 6.66663 3.3335 7.78829 3.3335 9.16663V15.8333C3.3335 17.2116 4.45516 18.3333 5.8335 18.3333H14.1668C15.5452 18.3333 16.6668 17.2116 16.6668 15.8333V9.16663C16.6668 7.78829 15.5452 6.66663 14.1668 6.66663Z" fill="#032887"/>
</g>
</svg>
