<svg width="20" height="20" viewBox="0 0 20 20" fill="none" xmlns="http://www.w3.org/2000/svg">
<g id="ic/share">
<path id="Mask" fill-rule="evenodd" clip-rule="evenodd" d="M8.71171 9.58328C11.6809 9.58328 14.3592 10.9449 16.0534 13.1324C15.2742 9.90828 12.2784 7.49995 8.71171 7.49995C8.25087 7.49995 7.87837 7.12745 7.87837 6.66661V5.06411L3.85837 8.54245L7.87837 12.0524V10.4166C7.87837 9.95578 8.25087 9.58328 8.71171 9.58328ZM16.8509 17.4999C16.4667 17.4999 16.1317 17.2374 16.0409 16.8641C15.2992 13.8233 12.69 11.6266 9.54504 11.2941V12.2283C9.54504 12.8166 9.19587 13.3408 8.63421 13.5949C8.02504 13.8724 7.31421 13.7724 6.82004 13.3416L2.59837 9.65494C2.27087 9.36828 2.08337 8.96244 2.08337 8.54161C2.08337 8.12078 2.27087 7.71494 2.59837 7.42828L6.82004 3.74161C7.31421 3.31078 8.02504 3.21078 8.63421 3.48828C9.19587 3.74244 9.54504 4.26661 9.54504 4.85494V5.86994C14.2317 6.28078 17.9167 10.1249 17.9167 14.7916C17.9167 15.4666 17.83 16.1633 17.66 16.8633C17.57 17.2374 17.2359 17.4999 16.8509 17.4999Z" fill="#949FB7"/>
</g>
</svg>
