<svg width="20" height="20" viewBox="0 0 20 20" fill="none" xmlns="http://www.w3.org/2000/svg">
<g id="ic/tag">
<path id="coolicon" d="M10.7474 18.3068C10.3049 18.3081 9.88023 18.1322 9.56822 17.8184L3.03988 11.2893C2.69537 10.9457 2.51872 10.4685 2.55655 9.98343L2.97322 4.51176C3.03263 3.68875 3.68838 3.03477 4.51155 2.97759L9.98322 2.56092C10.0257 2.55176 10.069 2.55176 10.1115 2.55176C10.5531 2.55289 10.9763 2.72841 11.289 3.04009L17.8182 9.56842C18.1309 9.881 18.3066 10.305 18.3066 10.7472C18.3066 11.1893 18.1309 11.6133 17.8182 11.9259L11.9257 17.8184C11.6139 18.132 11.1896 18.3079 10.7474 18.3068ZM10.1107 4.21842L4.63488 4.63509L4.21822 10.1109L10.7474 16.6401L16.6391 10.7484L10.1107 4.21842ZM7.21155 8.87843C6.41642 8.87859 5.73189 8.31706 5.57662 7.53723C5.42134 6.75741 5.83855 5.97649 6.57311 5.67208C7.30766 5.36766 8.15496 5.62452 8.59682 6.28558C9.03868 6.94663 8.95204 7.82776 8.38988 8.39009C8.07807 8.70369 7.65378 8.87953 7.21155 8.87843Z" fill="#949FB7"/>
</g>
</svg>
