<svg width="20" height="21" viewBox="0 0 20 21" fill="none" xmlns="http://www.w3.org/2000/svg">
<g id="ic/menu">
<path id="coolicon" d="M8.33341 15.5C8.33341 14.5795 9.07961 13.8333 10.0001 13.8333C10.9206 13.8333 11.6667 14.5795 11.6667 15.5C11.6667 16.4205 10.9206 17.1666 10.0001 17.1666C9.55805 17.1666 9.13413 16.9911 8.82157 16.6785C8.50901 16.3659 8.33341 15.942 8.33341 15.5ZM8.33341 10.5C8.33341 9.5795 9.07961 8.83331 10.0001 8.83331C10.9206 8.83331 11.6667 9.5795 11.6667 10.5C11.6667 11.4205 10.9206 12.1666 10.0001 12.1666C9.55805 12.1666 9.13413 11.9911 8.82157 11.6785C8.50901 11.3659 8.33341 10.942 8.33341 10.5ZM8.33341 5.49998C8.33341 4.5795 9.07961 3.83331 10.0001 3.83331C10.9206 3.83331 11.6667 4.57951 11.6667 5.49998C11.6667 6.42045 10.9206 7.16665 10.0001 7.16665C9.55805 7.16665 9.13413 6.99105 8.82157 6.67849C8.50901 6.36593 8.33341 5.94201 8.33341 5.49998Z" fill="#949FB7"/>
</g>
</svg>
