<svg width="18" height="17" viewBox="0 0 18 17" fill="none" xmlns="http://www.w3.org/2000/svg">
<g id="Group">
<path id="Vector" d="M11.2585 0.408345C11.1808 0.330647 11.0885 0.269013 10.987 0.226962C10.8855 0.184912 10.7767 0.163269 10.6668 0.163269C10.5569 0.163269 10.4481 0.184912 10.3466 0.226962C10.2451 0.269013 10.1528 0.330647 10.0751 0.408345C9.9182 0.565265 9.83004 0.778094 9.83004 1.00001C9.83004 1.22193 9.9182 1.43476 10.0751 1.59168L10.2418 1.75835L3.57511 6.92501L2.90011 6.24168C2.74319 6.08476 2.53036 5.9966 2.30845 5.9966C2.08653 5.9966 1.8737 6.08476 1.71678 6.24168C1.55986 6.3986 1.4717 6.61143 1.4717 6.83334C1.4717 7.05526 1.55986 7.26809 1.71678 7.42501L5.31678 11L0.950112 15.3667C0.872005 15.4441 0.81001 15.5363 0.767702 15.6379C0.725395 15.7394 0.703613 15.8483 0.703613 15.9583C0.703613 16.0684 0.725395 16.1773 0.767702 16.2788C0.81001 16.3804 0.872005 16.4725 0.950112 16.55C1.02758 16.6281 1.11975 16.6901 1.2213 16.7324C1.32285 16.7747 1.43177 16.7965 1.54178 16.7965C1.65179 16.7965 1.76071 16.7747 1.86226 16.7324C1.96381 16.6901 2.05598 16.6281 2.13345 16.55L6.50011 12.1667L10.0751 15.7333C10.1526 15.8114 10.2448 15.8734 10.3463 15.9158C10.4479 15.9581 10.5568 15.9798 10.6668 15.9798C10.7768 15.9798 10.8857 15.9581 10.9873 15.9158C11.0888 15.8734 11.181 15.8114 11.2585 15.7333C11.3366 15.6559 11.3986 15.5637 11.4409 15.4622C11.4832 15.3606 11.5049 15.2517 11.5049 15.1417C11.5049 15.0317 11.4832 14.9227 11.4409 14.8212C11.3986 14.7196 11.3366 14.6275 11.2585 14.55L10.5918 13.8833L15.7418 7.21668L15.9085 7.38334C15.9859 7.46145 16.0781 7.52345 16.1796 7.56575C16.2812 7.60806 16.3901 7.62984 16.5001 7.62984C16.6101 7.62984 16.7191 7.60806 16.8206 7.56575C16.9221 7.52345 17.0143 7.46145 17.0918 7.38334C17.1699 7.30587 17.2319 7.21371 17.2742 7.11216C17.3165 7.01061 17.3383 6.90169 17.3383 6.79168C17.3383 6.68167 17.3165 6.57275 17.2742 6.4712C17.2319 6.36965 17.1699 6.27748 17.0918 6.20001L11.2585 0.408345ZM9.40012 12.6667L4.83345 8.10834L11.5001 2.94168L14.6251 6.06668L9.40012 12.6667Z" fill="#949FB7"/>
</g>
</svg>
