<svg width="20" height="20" viewBox="0 0 20 20" fill="none" xmlns="http://www.w3.org/2000/svg">
<g id="ic/info">
<path id="coolicon" d="M9.99996 18.3333C5.39759 18.3333 1.66663 14.6023 1.66663 9.99996C1.66663 5.39759 5.39759 1.66663 9.99996 1.66663C14.6023 1.66663 18.3333 5.39759 18.3333 9.99996C18.3282 14.6002 14.6002 18.3282 9.99996 18.3333ZM3.33329 10.1433C3.37272 13.811 6.36755 16.7579 10.0354 16.7383C13.7033 16.7185 16.6662 13.7395 16.6662 10.0716C16.6662 6.40371 13.7033 3.42477 10.0354 3.40496C6.36755 3.38534 3.37272 6.33226 3.33329 9.99996V10.1433ZM11.6666 14.1666H9.16663V10.8333H8.33329V9.16663H10.8333V12.5H11.6666V14.1666ZM10.8333 7.49996H9.16663V5.83329H10.8333V7.49996Z" fill="#F38402"/>
</g>
</svg>
